<svg preserveAspectRatio="none" overflow="visible" style="display: block;" width="15.6134" height="15.6134" viewBox="0 0 15.6134 15.6134" fill="none" xmlns="http://www.w3.org/2000/svg">
<path id="Vector" d="M0 14.3491V1.26424C0 0.906043 0.154207 0.605576 0.462619 0.362842C0.771032 0.120107 1.13085 -0.000838452 1.54206 4.37453e-06C1.67057 4.37453e-06 1.80576 0.0155969 1.94762 0.0467815C2.08949 0.0779661 2.22417 0.125586 2.35165 0.189641L14.9195 6.73208C15.1508 6.85851 15.3245 7.01654 15.4407 7.20617C15.5568 7.39581 15.6144 7.59598 15.6134 7.80669C15.6124 8.01739 15.5548 8.21757 15.4407 8.4072C15.3266 8.59684 15.1528 8.75487 14.9195 8.88129L2.35165 15.4237C2.22314 15.4869 2.08847 15.5346 1.94762 15.5666C1.80678 15.5986 1.6716 15.6142 1.54206 15.6134C1.13085 15.6134 0.771032 15.492 0.462619 15.2493C0.154207 15.0065 0 14.7065 0 14.3491Z" fill="#7D7D80"/>
</svg>
