<svg preserveAspectRatio="none" overflow="visible" style="display: block;" width="15.6134" height="15.6134" viewBox="0 0 15.6134 15.6134" fill="none" xmlns="http://www.w3.org/2000/svg">
<path id="Vector" d="M11.5502 10.9294H14.5615C14.7953 10.9294 14.9913 11.0043 15.1497 11.1542C15.3081 11.3041 15.3871 11.4894 15.3865 11.71C15.386 11.9307 15.307 12.1163 15.1497 12.2667C14.9924 12.4171 14.7964 12.4918 14.5615 12.4907H13.5302L15.3865 14.2472C15.5378 14.3904 15.6134 14.5694 15.6134 14.7843C15.6134 14.9993 15.5378 15.1846 15.3865 15.3402C15.2215 15.4963 15.0257 15.5744 14.7991 15.5744C14.5725 15.5744 14.3764 15.4963 14.2109 15.3402L12.3752 13.6032V14.5595C12.3752 14.7807 12.296 14.9662 12.1376 15.1161C11.9792 15.266 11.7834 15.3407 11.5502 15.3402C11.317 15.3396 11.1212 15.265 10.9628 15.1161C10.8044 14.9673 10.7252 14.7817 10.7252 14.5595V11.71C10.7252 11.4889 10.8044 11.3036 10.9628 11.1542C11.1212 11.0048 11.317 10.9299 11.5502 10.9294ZM7.42513 1.56134V4.68402C7.42513 4.90521 7.50433 5.09075 7.66274 5.24064C7.82114 5.39053 8.01694 5.46521 8.25015 5.46469H11.5502L7.42513 1.56134ZM1.65003 0H7.56951C7.78951 0 7.99934 0.0390336 8.199 0.117101C8.39865 0.195168 8.57383 0.305762 8.72453 0.448885L12.7259 4.23513C12.8771 4.37826 12.994 4.54428 13.0765 4.7332C13.159 4.92212 13.2002 5.12041 13.2002 5.32807V8.58737C13.2002 8.80856 13.121 8.9941 12.9626 9.14399C12.8042 9.29388 12.6084 9.36856 12.3752 9.36804H9.90018C9.66642 9.36804 9.47062 9.44298 9.31277 9.59287C9.15491 9.74276 9.07571 9.92804 9.07516 10.1487V14.8327C9.07516 15.0539 8.99596 15.2395 8.83756 15.3893C8.67915 15.5392 8.48335 15.6139 8.25015 15.6134H1.65003C1.19627 15.6134 0.807964 15.4606 0.485109 15.1551C0.162253 14.8496 0.00055001 14.4819 0 14.0521V1.56134C0 1.13197 0.161703 0.764536 0.485109 0.459034C0.808514 0.153532 1.19682 0.000520447 1.65003 0Z" fill="#7D7D80"/>
</svg>
